<svg xmlns="http://www.w3.org/2000/svg" xmlns:xlink="http://www.w3.org/1999/xlink" width="27.104" height="27.091" viewBox="0 0 27.104 27.091">
  <defs>
    <clipPath id="clip-path">
      <rect id="Rectangle_174" data-name="Rectangle 174" width="27.104" height="27.091" fill="none"/>
    </clipPath>
  </defs>
  <g id="Group_48" data-name="Group 48" clip-path="url(#clip-path)">
    <path id="Path_12" data-name="Path 12" d="M6.1,0H21.021c.057.018.112.041.17.054a10.624,10.624,0,0,1,1.2.273,6.732,6.732,0,0,1,4.544,4.964c.066.261.11.528.164.793V21c-.019.066-.038.131-.056.2a11.111,11.111,0,0,1-.511,1.791,6.6,6.6,0,0,1-6.327,4.088c-4.424.027-8.849,0-13.274.01a6.587,6.587,0,0,1-3.227-.754A6.433,6.433,0,0,1,.047,20.591C-.036,15.895.012,11.2.038,6.5A5.7,5.7,0,0,1,.359,4.69a6.679,6.679,0,0,1,5-4.535C5.607.1,5.856.052,6.1,0M2.293,13.517h0q0,3.319,0,6.637a6.664,6.664,0,0,0,.052.815,4.466,4.466,0,0,0,4.284,3.84c4.592.016,9.185.007,13.777,0a4.894,4.894,0,0,0,.6-.051,4.475,4.475,0,0,0,3.82-4.277c.015-4.6.006-9.2,0-13.8a4.818,4.818,0,0,0-.05-.577,4.476,4.476,0,0,0-4.244-3.826c-4.61-.016-9.22-.007-13.83,0a4.949,4.949,0,0,0-.6.052A4.5,4.5,0,0,0,2.3,6.562c-.017,2.318,0,4.636,0,6.955" transform="translate(0 -0.001)" fill="#fff"/>
    <path id="Path_13" data-name="Path 13" d="M141.663,134.519a6.771,6.771,0,1,1-6.775-6.76,6.769,6.769,0,0,1,6.775,6.76m-6.775-4.49a4.5,4.5,0,1,0,4.506,4.491,4.494,4.494,0,0,0-4.506-4.491" transform="translate(-121.33 -120.987)" fill="#fff"/>
    <path id="Path_14" data-name="Path 14" d="M364.05,88.384a1.687,1.687,0,0,1-1.7-1.688,1.707,1.707,0,0,1,1.689-1.7,1.731,1.731,0,0,1,1.706,1.7,1.706,1.706,0,0,1-1.7,1.694" transform="translate(-343.148 -80.486)" fill="#fff"/>
  </g>
</svg>
