<svg xmlns="http://www.w3.org/2000/svg" xmlns:xlink="http://www.w3.org/1999/xlink" width="27" height="27" viewBox="0 0 27 27">
  <defs>
    <clipPath id="clip-path">
      <rect id="Rectangle_172" data-name="Rectangle 172" width="27" height="27" transform="translate(0 0.214)" fill="none"/>
    </clipPath>
  </defs>
  <g id="Group_38" data-name="Group 38" transform="translate(0 -0.214)" clip-path="url(#clip-path)">
    <path id="Path_8" data-name="Path 8" d="M3.194,0H24.062a.54.54,0,0,0,.116.051,3.7,3.7,0,0,1,3.077,3.665q0,9.926,0,19.852a3.7,3.7,0,0,1-3.687,3.687q-9.939,0-19.878,0A3.692,3.692,0,0,1,.214,24.792c-.084-.239-.143-.486-.214-.73V3.194a.559.559,0,0,0,.051-.116A3.608,3.608,0,0,1,2.054.4,8.765,8.765,0,0,1,3.194,0M14.5,12.072c0-.255.007-.51,0-.764a.509.509,0,0,0-.585-.562q-1.171,0-2.341,0c-.477,0-.661.181-.662.654q0,5.042,0,10.084c0,.463.2.661.668.662.727,0,1.455,0,2.182,0,.568,0,.729-.159.729-.722,0-1.721-.008-3.441,0-5.162a3.25,3.25,0,0,1,.513-1.814,1.734,1.734,0,0,1,1.689-.793,1.56,1.56,0,0,1,1.5,1.185,5.092,5.092,0,0,1,.207,1.33c.023,1.774.008,3.548.009,5.321,0,.461.182.646.642.648q1.184,0,2.368,0c.468,0,.668-.2.667-.662,0-1.836.018-3.672-.021-5.507a12.794,12.794,0,0,0-.256-2.37,3.432,3.432,0,0,0-2.583-2.871,5.614,5.614,0,0,0-2.735.005,3.593,3.593,0,0,0-1.991,1.34M9.278,16.436q0-2.513,0-5.026c0-.473-.191-.664-.658-.666q-1.117,0-2.234,0c-.489,0-.69.2-.69.7q0,5,0,10c0,.489.221.7.72.705q1.064,0,2.128,0c.54,0,.734-.194.734-.736q0-2.487,0-4.973M9.8,7.441A2.317,2.317,0,0,0,7.5,5.111a2.317,2.317,0,0,0-.044,4.635A2.3,2.3,0,0,0,9.8,7.441" transform="translate(-0.002 -0.041)" fill="#fff"/>
  </g>
</svg>
